<?xml version="1.0" encoding="UTF-8"?>
<svg xmlns="http://www.w3.org/2000/svg" width="183" height="26" viewBox="0 0 183 26" fill="none">
  <g id="ROZETKA Pay">
    <path d="M11.5359 19.5578H17.3176L11.646 12.197C14.0413 11.2334 15.3353 9.25268 15.3353 6.79015C15.3353 3.33726 12.7748 0.821198 8.17698 0.821198H0V19.5578H4.95575V12.8126H6.69026L11.5359 19.5578ZM4.95575 5.13062H8.31464C9.55358 5.13062 10.2419 5.79979 10.2419 6.97752C10.2419 8.20878 9.58111 8.93148 8.50737 8.93148H4.95575V5.13062Z" fill="#05B552"></path>
    <path d="M27.5362 19.879C33.6758 19.879 37.9433 15.9176 37.9433 10.1895C37.9433 4.43469 33.7034 0.5 27.5362 0.5C21.3691 0.5 17.1016 4.46146 17.1016 10.1895C17.1016 15.9443 21.3415 19.879 27.5362 19.879ZM27.5362 15.4625C24.4802 15.4625 22.4704 13.3747 22.4704 10.1895C22.4704 7.00428 24.4802 4.91649 27.5362 4.91649C30.5647 4.91649 32.5746 7.00428 32.5746 10.1895C32.5746 13.3747 30.5647 15.4625 27.5362 15.4625Z" fill="#05B552"></path>
    <path d="M46.6726 15.2484L54.6844 5.15739V0.821198H38.9086V5.13062H48.7651L38.1102 18.5675V19.5578H55.4278V15.2484H46.6726Z" fill="#05B552"></path>
    <path d="M72.0883 5.07709V0.821198H58.102V19.5578H72.0883V15.3019H62.9752V11.9293H70.7667V7.91435H62.9752V5.07709H72.0883Z" fill="#05B552"></path>
    <path d="M91.3849 0.821198H74.0398V5.21092H80.1519V19.5578H85.2728V5.21092H91.3849V0.821198Z" fill="#05B552"></path>
    <path d="M113.214 19.5578L104.403 9.46681L112.333 0.821198H106.331L99.0898 8.98501V0.821198H93.9688V19.5578H99.0898V10.8854L106.523 19.5578H113.214Z" fill="#05B552"></path>
    <path d="M126.472 19.5578H131.978L121.984 0.821198H120.745L110.806 19.5578H115.982L117.166 17.1488H125.315L126.472 19.5578ZM118.955 13.5621L121.296 8.79764L123.581 13.5621H118.955Z" fill="#05B552"></path>
    <path d="M146.862 0.821198H139.896V19.5578H143.063V12.3308H146.807C151.267 12.3308 153.635 9.92184 153.635 6.57602C153.635 3.23019 151.295 0.821198 146.862 0.821198ZM147.082 9.76124H143.063V3.36403H147.082C149.037 3.36403 150.359 4.64882 150.359 6.57602C150.359 8.50321 149.037 9.76124 147.082 9.76124Z" fill="#05B552"></path>
    <path d="M161.256 6.12099C159.109 6.12099 157.099 6.79015 155.722 7.80728V10.8051C156.961 9.60064 159.026 8.63704 160.926 8.63704C162.853 8.63704 163.982 9.27944 163.982 10.3769C163.982 11.1799 163.431 11.5278 161.752 11.849L159.935 12.2238C156.603 12.8662 154.786 14.2045 154.786 16.2923C154.786 18.4604 156.493 19.879 159.109 19.879C161.119 19.879 162.881 18.8887 163.982 17.2827V19.5578H166.9V11.1799C166.9 7.99465 164.808 6.12099 161.256 6.12099ZM159.742 17.5503C158.613 17.5503 157.897 16.9615 157.897 15.9979C157.897 15.0075 158.806 14.4186 160.788 13.9904L161.724 13.7762C162.715 13.5621 163.459 13.2409 163.982 12.9197V14.0171C163.982 16.2388 162.22 17.5503 159.742 17.5503Z" fill="#05B552"></path>
    <path d="M179.779 6.44218L176.062 15.1413L171.822 6.44218H168.353L174.52 18.5407L171.244 25.5H174.327L183 6.44218H179.779Z" fill="#05B552"></path>
  </g>
</svg>
